<svg width="182" height="168" viewBox="0 0 182 168" fill="none" xmlns="http://www.w3.org/2000/svg">
<rect width="182" height="168" rx="15" fill="#F9F9F9"/>
<path d="M38.3047 135.188C36.4219 135.188 35.0625 134.719 34.2266 133.781C33.3984 132.844 32.9844 131.352 32.9844 129.305V127.289H37.0625V129.867C37.0625 130.344 37.1328 130.719 37.2734 130.992C37.4219 131.258 37.6758 131.391 38.0352 131.391C38.4102 131.391 38.668 131.281 38.8086 131.062C38.957 130.844 39.0312 130.484 39.0312 129.984C39.0312 129.352 38.9688 128.824 38.8438 128.402C38.7188 127.973 38.5 127.566 38.1875 127.184C37.8828 126.793 37.457 126.34 36.9102 125.824L35.0586 124.066C33.6758 122.762 32.9844 121.27 32.9844 119.59C32.9844 117.832 33.3906 116.492 34.2031 115.57C35.0234 114.648 36.207 114.188 37.7539 114.188C39.6445 114.188 40.9844 114.691 41.7734 115.699C42.5703 116.707 42.9688 118.238 42.9688 120.293H38.7734V118.875C38.7734 118.594 38.6914 118.375 38.5273 118.219C38.3711 118.062 38.1562 117.984 37.8828 117.984C37.5547 117.984 37.3125 118.078 37.1562 118.266C37.0078 118.445 36.9336 118.68 36.9336 118.969C36.9336 119.258 37.0117 119.57 37.168 119.906C37.3242 120.242 37.6328 120.629 38.0938 121.066L40.4727 123.352C40.9492 123.805 41.3867 124.285 41.7852 124.793C42.1836 125.293 42.5039 125.879 42.7461 126.551C42.9883 127.215 43.1094 128.027 43.1094 128.988C43.1094 130.926 42.75 132.445 42.0312 133.547C41.3203 134.641 40.0781 135.188 38.3047 135.188ZM44.4219 135V117.422H48.5234V119.461C48.7109 118.742 49.0312 118.191 49.4844 117.809C49.9375 117.426 50.6016 117.234 51.4766 117.234C52.1797 117.234 52.7773 117.398 53.2695 117.727C53.7695 118.047 54.1211 118.473 54.3242 119.004C54.6445 118.426 55.0195 117.988 55.4492 117.691C55.8867 117.387 56.5078 117.234 57.3125 117.234C58.2891 117.234 59.0391 117.445 59.5625 117.867C60.0938 118.281 60.4609 118.859 60.6641 119.602C60.875 120.336 60.9805 121.188 60.9805 122.156V135H56.7969V122.086C56.7969 120.953 56.5078 120.387 55.9297 120.387C55.625 120.387 55.3906 120.492 55.2266 120.703C55.0625 120.906 54.9492 121.16 54.8867 121.465C54.8242 121.77 54.793 122.074 54.793 122.379V135H50.6094V122.086C50.6094 121.719 50.5625 121.352 50.4688 120.984C50.3828 120.617 50.1562 120.434 49.7891 120.434C49.4766 120.434 49.2344 120.547 49.0625 120.773C48.8906 121 48.7734 121.281 48.7109 121.617C48.6484 121.945 48.6172 122.27 48.6172 122.59V135H44.4219ZM65.832 135.188C64.8555 135.188 64.1094 134.961 63.5938 134.508C63.0859 134.055 62.7383 133.434 62.5508 132.645C62.3633 131.855 62.2695 130.961 62.2695 129.961C62.2695 128.891 62.375 128.016 62.5859 127.336C62.7969 126.648 63.1562 126.086 63.6641 125.648C64.1797 125.211 64.8867 124.84 65.7852 124.535L68.3867 123.645V121.84C68.3867 120.895 68.0781 120.422 67.4609 120.422C66.8984 120.422 66.6172 120.805 66.6172 121.57V122.625H62.5391C62.5312 122.562 62.5273 122.484 62.5273 122.391C62.5273 122.289 62.5273 122.176 62.5273 122.051C62.5273 120.301 62.9375 119.062 63.7578 118.336C64.5859 117.602 65.8945 117.234 67.6836 117.234C68.6211 117.234 69.4609 117.402 70.2031 117.738C70.9453 118.066 71.5312 118.555 71.9609 119.203C72.3984 119.852 72.6172 120.652 72.6172 121.605V135H68.4453V132.914C68.2422 133.648 67.9062 134.211 67.4375 134.602C66.9688 134.992 66.4336 135.188 65.832 135.188ZM67.4844 131.93C67.8281 131.93 68.0625 131.785 68.1875 131.496C68.3125 131.207 68.375 130.895 68.375 130.559V125.66C67.7969 125.895 67.3477 126.191 67.0273 126.551C66.707 126.902 66.5469 127.422 66.5469 128.109V130.371C66.5469 131.41 66.8594 131.93 67.4844 131.93ZM74.2344 135V117.422H78.5V119.379C78.7031 118.699 79.0625 118.168 79.5781 117.785C80.0938 117.402 80.7422 117.211 81.5234 117.211V120.715C81.1797 120.715 80.7695 120.754 80.293 120.832C79.8164 120.902 79.3984 121.004 79.0391 121.137C78.6797 121.262 78.5 121.402 78.5 121.559V135H74.2344ZM86.1641 135.188C85.0312 135.188 84.2656 134.949 83.8672 134.473C83.4766 133.988 83.2812 133.25 83.2812 132.258V121.301H82.0977V118.102H83.2812V114.375H87.3594V118.102H88.543V121.301H87.3594V131.273C87.3594 131.562 87.4062 131.766 87.5 131.883C87.5938 132 87.7734 132.059 88.0391 132.059C88.2266 132.059 88.3945 132.043 88.543 132.012V134.871C88.4492 134.902 88.1562 134.961 87.6641 135.047C87.1719 135.141 86.6719 135.188 86.1641 135.188Z" fill="#00A6FF"/>
<path d="M95.5859 135V114.375H99.6875V121.746H101.633V114.375H105.734V135H101.633V125.648H99.6875V135H95.5859ZM112.602 135.188C109.102 135.188 107.352 133.371 107.352 129.738V122.684C107.352 121.027 107.816 119.707 108.746 118.723C109.676 117.73 110.961 117.234 112.602 117.234C114.25 117.234 115.539 117.73 116.469 118.723C117.398 119.707 117.863 121.027 117.863 122.684V129.738C117.863 133.371 116.109 135.188 112.602 135.188ZM112.602 131.953C112.953 131.953 113.203 131.828 113.352 131.578C113.508 131.32 113.586 130.996 113.586 130.605V122.016C113.586 120.992 113.258 120.48 112.602 120.48C111.945 120.48 111.617 120.992 111.617 122.016V130.605C111.617 130.996 111.691 131.32 111.84 131.578C111.996 131.828 112.25 131.953 112.602 131.953ZM119.422 135V117.422H123.523V119.461C123.711 118.742 124.031 118.191 124.484 117.809C124.938 117.426 125.602 117.234 126.477 117.234C127.18 117.234 127.777 117.398 128.27 117.727C128.77 118.047 129.121 118.473 129.324 119.004C129.645 118.426 130.02 117.988 130.449 117.691C130.887 117.387 131.508 117.234 132.312 117.234C133.289 117.234 134.039 117.445 134.562 117.867C135.094 118.281 135.461 118.859 135.664 119.602C135.875 120.336 135.98 121.188 135.98 122.156V135H131.797V122.086C131.797 120.953 131.508 120.387 130.93 120.387C130.625 120.387 130.391 120.492 130.227 120.703C130.062 120.906 129.949 121.16 129.887 121.465C129.824 121.77 129.793 122.074 129.793 122.379V135H125.609V122.086C125.609 121.719 125.562 121.352 125.469 120.984C125.383 120.617 125.156 120.434 124.789 120.434C124.477 120.434 124.234 120.547 124.062 120.773C123.891 121 123.773 121.281 123.711 121.617C123.648 121.945 123.617 122.27 123.617 122.59V135H119.422ZM142.555 135.188C141.305 135.188 140.309 134.953 139.566 134.484C138.824 134.016 138.293 133.34 137.973 132.457C137.652 131.574 137.492 130.512 137.492 129.27V122.203C137.492 120.57 137.961 119.336 138.898 118.5C139.836 117.656 141.125 117.234 142.766 117.234C146.141 117.234 147.828 118.891 147.828 122.203V123.48C147.828 125.027 147.812 126.066 147.781 126.598H141.688V129.996C141.688 130.309 141.707 130.617 141.746 130.922C141.785 131.219 141.871 131.465 142.004 131.66C142.145 131.855 142.367 131.953 142.672 131.953C143.109 131.953 143.383 131.766 143.492 131.391C143.602 131.008 143.656 130.512 143.656 129.902V128.215H147.828V129.211C147.828 130.523 147.664 131.625 147.336 132.516C147.016 133.398 146.469 134.066 145.695 134.52C144.93 134.965 143.883 135.188 142.555 135.188ZM141.664 124.512H143.656V122.145C143.656 121.512 143.578 121.059 143.422 120.785C143.266 120.504 143.031 120.363 142.719 120.363C142.383 120.363 142.121 120.496 141.934 120.762C141.754 121.027 141.664 121.488 141.664 122.145V124.512Z" fill="#8AD6FF"/>
<path d="M120.636 59.2296H128.25L91.0001 25L53.7503 59.2296H61.3638V100.264H55.4366V103H126.564V100.264H120.636L120.636 59.2296ZM60.7703 56.494L64.7397 52.8464H104.678V50.1108H67.7167L91.0001 28.7152L121.23 56.4938L60.7703 56.494ZM64.0994 66.5247H73.6742V63.7891H64.0994V59.2296H117.901V63.7891H108.326V66.5247H117.901V100.264H64.0994V66.5247Z" fill="#00659C"/>
<path d="M91.0001 35.5205C87.7319 35.5205 85.0728 38.1795 85.0728 41.4477C85.0728 44.716 87.7319 47.375 91.0001 47.375C94.2685 47.375 96.9273 44.716 96.9273 41.4477C96.9273 38.1795 94.2685 35.5205 91.0001 35.5205ZM91.0001 44.6395C89.2404 44.6395 87.8085 43.2076 87.8085 41.4479C87.8085 39.6882 89.2404 38.2563 91.0001 38.2563C92.7598 38.2563 94.1917 39.6882 94.1917 41.4479C94.1917 43.2076 92.7598 44.6395 91.0001 44.6395Z" fill="#00659C"/>
<path d="M91.0001 63.7891C83.937 63.7891 79.2614 66.9823 76.5826 69.661C73.6888 72.5548 72.4625 75.4514 72.4116 75.5733L74.9368 76.6257C74.979 76.5247 79.2811 66.5247 91.0001 66.5247C95.8801 66.5247 100.055 68.2055 103.408 71.5208C105.952 74.0358 107.054 76.6031 107.063 76.6257L109.588 75.5733C109.538 75.4514 108.311 72.5546 105.418 69.661C102.739 66.982 98.0629 63.7891 91.0001 63.7891Z" fill="#00659C"/>
<path d="M91.0001 71.0841C86.1028 71.0841 83.0365 73.3089 81.3263 75.1753C79.4791 77.1912 78.7879 79.2296 78.7594 79.3154L81.3535 80.184C81.4424 79.9241 83.6157 73.8196 90.9999 73.8196C98.4245 73.8196 100.873 79.9704 100.972 80.227L103.533 79.2665C103.408 78.9325 100.357 71.0841 91.0001 71.0841Z" fill="#00659C"/>
<path d="M91.0001 78.379C85.8259 78.379 84.2944 82.7729 84.2319 82.96L86.8259 83.829C86.835 83.8018 87.7725 81.1148 91.0003 81.1148C94.2107 81.1148 95.2962 83.772 95.3366 83.8747L97.8981 82.9141C97.8284 82.729 96.1383 78.379 91.0001 78.379Z" fill="#00659C"/>
<path d="M91.0001 85.674C88.2346 85.674 85.9848 87.9238 85.9848 90.6892C85.9848 93.4547 88.2346 95.7045 91.0001 95.7045C93.7654 95.7045 96.0154 93.4547 96.0154 90.6892C96.0154 87.9241 93.7654 85.674 91.0001 85.674ZM91.0001 92.9691C89.7429 92.9691 88.7204 91.9465 88.7204 90.6894C88.7204 89.4323 89.7429 88.4097 91.0001 88.4097C92.2572 88.4097 93.2797 89.4323 93.2797 90.6894C93.2797 91.9465 92.2569 92.9691 91.0001 92.9691Z" fill="#00659C"/>
<path d="M70.938 93.882H67.2904V96.6176H70.938V93.882Z" fill="#00659C"/>
<path d="M76.4094 93.882H72.7618V96.6176H76.4094V93.882Z" fill="#00659C"/>
<path d="M70.938 88.4106H67.2904V91.1463H70.938V88.4106Z" fill="#00659C"/>
<path d="M114.709 93.882H111.061V96.6176H114.709V93.882Z" fill="#00659C"/>
<path d="M109.237 93.882H105.59V96.6176H109.237V93.882Z" fill="#00659C"/>
<path d="M114.709 88.4106H111.061V91.1463H114.709V88.4106Z" fill="#00659C"/>
</svg>
